<?xml version="1.0" encoding="UTF-8"?>
<svg width="88px" height="88px" viewBox="0 0 88 88" version="1.1" xmlns="http://www.w3.org/2000/svg" xmlns:xlink="http://www.w3.org/1999/xlink">
    <!-- Generator: Sketch 50.2 (55047) - http://www.bohemiancoding.com/sketch -->
    <title>Image holder</title>
    <desc>Created with Sketch.</desc>
    <defs>
        <path d="M0,0 L84,0 L84,84 L0,84 L0,0 Z M32.928,43.68 L41.11296,54.60672 L53.088,39.648 L69.216,59.808 L20.832,59.808 L32.928,43.68 Z M28.56,36.96 C25.7764849,36.96 23.52,34.7035151 23.52,31.92 C23.52,29.1364849 25.7764849,26.88 28.56,26.88 C31.3435151,26.88 33.6,29.1364849 33.6,31.92 C33.6,34.7035151 31.3435151,36.96 28.56,36.96 Z" id="path-1"></path>
    </defs>
    <g id="-----------" stroke="none" stroke-width="1" fill="none" fill-rule="evenodd">
        <g id="47.Input/Select-List" transform="translate(-200.000000, -458.000000)">
            <g id="Image-holder" transform="translate(200.000000, 458.000000)">
                <g id="Icon/elements/constants/added-image" transform="translate(2.000000, 2.000000)">
                    <mask id="mask-2" fill="white">
                        <use xlink:href="#path-1"></use>
                    </mask>
                    <g id="Mask"></g>
                    <g id="Colors/Hover/Light/Mor" mask="url(#mask-2)" fill="#F1EDF9" fill-rule="evenodd">
                        <rect id="Base" x="0" y="0" width="84" height="84"></rect>
                    </g>
                </g>
                <rect id="Rectangle" stroke="#C5C5C5" stroke-width="0.3" x="0.35" y="0.249993896" width="87.3" height="87.3"></rect>
                <path d="M12.2089844,76 L11.2421875,76 L11.2421875,68.2495117 L12.2089844,68.2495117 L12.2089844,76 Z M14.1318359,76 L14.1318359,70.2099609 L15.0126953,70.2099609 L15.0126953,71.1230469 L15.0986328,71.1230469 C15.2311205,70.8007796 15.4370103,70.5510263 15.7163086,70.3737793 C15.9956069,70.1965323 16.3286113,70.1079102 16.715332,70.1079102 C17.1092142,70.1079102 17.4413235,70.2019034 17.7116699,70.3898926 C17.9820163,70.5778818 18.1834303,70.8222641 18.315918,71.1230469 L18.4018555,71.1230469 C18.5594083,70.8151026 18.7939438,70.56893 19.1054688,70.3845215 C19.4169937,70.200113 19.7732727,70.1079102 20.1743164,70.1079102 C20.7651397,70.1079102 21.2198877,70.2708317 21.5385742,70.5966797 C21.8572607,70.9225277 22.0166016,71.3898082 22.0166016,71.9985352 L22.0166016,76 L21.0927734,76 L21.0927734,72.2133789 C21.0927734,71.78727 20.9916189,71.4685883 20.7893066,71.2573242 C20.5869944,71.0460601 20.2817403,70.9404297 19.8735352,70.9404297 C19.4724915,70.9404297 19.1484387,71.071125 18.9013672,71.3325195 C18.6542956,71.5939141 18.5307617,71.9090151 18.5307617,72.277832 L18.5307617,76 L17.6069336,76 L17.6069336,72.0683594 C17.6069336,71.7246077 17.4968273,71.4506846 17.2766113,71.246582 C17.0563954,71.0424794 16.7636737,70.9404297 16.3984375,70.9404297 C16.0188783,70.9404297 15.7001966,71.0836574 15.4423828,71.3701172 C15.184569,71.656577 15.0556641,72.0039042 15.0556641,72.4121094 L15.0556641,76 L14.1318359,76 Z M25.5507812,75.2910156 C26.0270206,75.2910156 26.4217921,75.1522638 26.7351074,74.8747559 C27.0484228,74.597248 27.2050781,74.2526062 27.2050781,73.8408203 L27.2050781,73.309082 L25.6474609,73.4111328 C24.8024046,73.4684248 24.3798828,73.7835258 24.3798828,74.3564453 C24.3798828,74.6500666 24.4908843,74.8792309 24.7128906,75.0439453 C24.9348969,75.2086597 25.214191,75.2910156 25.5507812,75.2910156 Z M25.3789062,76.1020508 C24.816729,76.1020508 24.3503436,75.9471858 23.9797363,75.6374512 C23.609129,75.3277166 23.4238281,74.9078803 23.4238281,74.3779297 C23.4238281,73.3180286 24.1274344,72.746908 25.534668,72.6645508 L27.2050781,72.5625 L27.2050781,72.0361328 C27.2050781,71.2984989 26.7682335,70.9296875 25.8945312,70.9296875 C25.5471988,70.9296875 25.258953,70.9923496 25.0297852,71.1176758 C24.8006173,71.2430019 24.6538089,71.4202463 24.5893555,71.6494141 L23.6547852,71.6494141 C23.7156579,71.1839169 23.9555643,70.8106297 24.3745117,70.529541 C24.7934591,70.2484524 25.3108693,70.1079102 25.9267578,70.1079102 C26.632165,70.1079102 27.1755352,70.2788883 27.5568848,70.6208496 C27.9382343,70.962811 28.1289062,71.4345673 28.1289062,72.0361328 L28.1289062,76 L27.2480469,76 L27.2480469,75.1459961 L27.1621094,75.1459961 C26.9759105,75.4539403 26.7288427,75.6902661 26.4208984,75.8549805 C26.1129542,76.0196948 25.7656269,76.1020508 25.3789062,76.1020508 Z M32.2431641,75.0976562 C32.7802761,75.0976562 33.2010076,74.9087747 33.5053711,74.5310059 C33.8097346,74.153237 33.9619141,73.6492545 33.9619141,73.019043 C33.9619141,72.3888315 33.8088394,71.8848489 33.5026855,71.5070801 C33.1965317,71.1293113 32.7766954,70.9404297 32.2431641,70.9404297 C31.706052,70.9404297 31.2924819,71.1293113 31.0024414,71.5070801 C30.7124009,71.8848489 30.5673828,72.3888315 30.5673828,73.019043 C30.5673828,73.6492545 30.7124009,74.153237 31.0024414,74.5310059 C31.2924819,74.9087747 31.706052,75.0976562 32.2431641,75.0976562 Z M32.2861328,78.2236328 C31.5878871,78.2236328 31.0266134,78.0795099 30.6022949,77.7912598 C30.1779764,77.5030096 29.9300134,77.1189803 29.8583984,76.6391602 L30.8359375,76.6391602 C30.886068,76.8754895 31.0364571,77.064371 31.2871094,77.2058105 C31.5377617,77.3472501 31.8707662,77.4179688 32.2861328,77.4179688 C32.8053411,77.4179688 33.2108547,77.2971203 33.5026855,77.0554199 C33.7945164,76.8137195 33.9404297,76.4798198 33.9404297,76.0537109 L33.9404297,74.9150391 L33.8544922,74.9150391 C33.6718741,75.2337256 33.4230159,75.4798982 33.1079102,75.6535645 C32.7928044,75.8272307 32.4365254,75.9140625 32.0390625,75.9140625 C31.2906864,75.9140625 30.6989768,75.648196 30.263916,75.1164551 C29.8288552,74.5847141 29.6113281,73.8855838 29.6113281,73.019043 C29.6113281,72.1525022 29.8297504,71.4506863 30.2666016,70.9135742 C30.7034527,70.3764622 31.2942671,70.1079102 32.0390625,70.1079102 C32.4436869,70.1079102 32.8133935,70.200113 33.1481934,70.3845215 C33.4829932,70.56893 33.7327466,70.816893 33.8974609,71.128418 L33.9833984,71.128418 L33.9833984,70.2099609 L34.8642578,70.2099609 L34.8642578,76.1020508 C34.8642578,76.750166 34.6324079,77.2657858 34.1687012,77.6489258 C33.7049944,78.0320657 33.0774779,78.2236328 32.2861328,78.2236328 Z M38.9785156,70.9243164 C38.5165993,70.9243164 38.1370458,71.0800766 37.8398438,71.3916016 C37.5426417,71.7031266 37.3761395,72.1149063 37.340332,72.6269531 L40.5307617,72.6269531 C40.5200195,72.1149063 40.373211,71.7031266 40.090332,71.3916016 C39.807453,71.0800766 39.4368513,70.9243164 38.9785156,70.9243164 Z M40.5039062,74.5014648 L41.4277344,74.5014648 C41.2880852,74.9991887 41.0052105,75.3903794 40.5791016,75.6750488 C40.1529927,75.9597182 39.62305,76.1020508 38.9892578,76.1020508 C38.1871705,76.1020508 37.5515974,75.8326036 37.0825195,75.2937012 C36.6134417,74.7547987 36.3789062,74.0270228 36.3789062,73.1103516 C36.3789062,72.2008418 36.615232,71.4730659 37.0878906,70.927002 C37.5605492,70.380938 38.194332,70.1079102 38.9892578,70.1079102 C39.7698607,70.1079102 40.3839496,70.3684056 40.831543,70.8894043 C41.2791364,71.410403 41.5029297,72.1202755 41.5029297,73.019043 L41.5029297,73.3735352 L37.340332,73.3735352 L37.340332,73.4165039 C37.3653973,73.9894234 37.5274236,74.4441715 37.826416,74.7807617 C38.1254084,75.1173519 38.5201798,75.2856445 39.0107422,75.2856445 C39.3831399,75.2856445 39.6946602,75.2185065 39.9453125,75.0842285 C40.1959648,74.9499505 40.3821608,74.7556979 40.5039062,74.5014648 Z M46.2402344,76 L46.2402344,67.9111328 L47.1640625,67.9111328 L47.1640625,71.1230469 L47.25,71.1230469 C47.3968106,70.8043604 47.6197088,70.5555022 47.9187012,70.3764648 C48.2176936,70.1974275 48.5891905,70.1079102 49.0332031,70.1079102 C49.6455109,70.1079102 50.13159,70.2950014 50.4914551,70.6691895 C50.8513202,71.0433775 51.03125,71.5706346 51.03125,72.2509766 L51.03125,76 L50.1074219,76 L50.1074219,72.4765625 C50.1074219,71.9645157 49.9937349,71.5804863 49.7663574,71.3244629 C49.53898,71.0684395 49.2068707,70.9404297 48.7700195,70.9404297 C48.2508112,70.9404297 47.8533542,71.0899236 47.5776367,71.388916 C47.3019192,71.6879084 47.1640625,72.0826798 47.1640625,72.5732422 L47.1640625,76 L46.2402344,76 Z M55.1616211,76.1020508 C54.3380493,76.1020508 53.6872582,75.834394 53.2092285,75.2990723 C52.7311988,74.7637506 52.4921875,74.032394 52.4921875,73.1049805 C52.4921875,72.1739862 52.7311988,71.4417344 53.2092285,70.9082031 C53.6872582,70.3746718 54.3380493,70.1079102 55.1616211,70.1079102 C55.9851929,70.1079102 56.6359839,70.3746718 57.1140137,70.9082031 C57.5920434,71.4417344 57.8310547,72.1739862 57.8310547,73.1049805 C57.8310547,74.032394 57.5920434,74.7637506 57.1140137,75.2990723 C56.6359839,75.834394 55.9851929,76.1020508 55.1616211,76.1020508 Z M55.1616211,75.2695312 C55.7094754,75.2695312 56.1319972,75.0797545 56.4291992,74.7001953 C56.7264012,74.3206361 56.875,73.7889032 56.875,73.1049805 C56.875,72.417477 56.7264012,71.8848489 56.4291992,71.5070801 C56.1319972,71.1293113 55.7094754,70.9404297 55.1616211,70.9404297 C54.6137668,70.9404297 54.191245,71.1293113 53.894043,71.5070801 C53.596841,71.8848489 53.4482422,72.417477 53.4482422,73.1049805 C53.4482422,73.7889032 53.596841,74.3206361 53.894043,74.7001953 C54.191245,75.0797545 54.6137668,75.2695312 55.1616211,75.2695312 Z M59.3994141,76 L59.3994141,67.9111328 L60.3232422,67.9111328 L60.3232422,76 L59.3994141,76 Z M64.324707,76.1020508 C63.5834924,76.1020508 62.992678,75.8299181 62.5522461,75.2856445 C62.1118142,74.741371 61.8916016,74.0144902 61.8916016,73.1049805 C61.8916016,72.1954707 62.1136046,71.46859 62.5576172,70.9243164 C63.0016298,70.3800429 63.5906539,70.1079102 64.324707,70.1079102 C64.7293315,70.1079102 65.0918767,70.1974275 65.4123535,70.3764648 C65.7328304,70.5555022 65.9754224,70.8043604 66.1401367,71.1230469 L66.2207031,71.1230469 L66.2207031,67.9111328 L67.1445312,67.9111328 L67.1445312,76 L66.2636719,76 L66.2636719,75.0761719 L66.1777344,75.0761719 C65.9951163,75.3984391 65.740887,75.6499828 65.4150391,75.8308105 C65.0891911,76.0116383 64.7257507,76.1020508 64.324707,76.1020508 Z M64.5395508,70.9404297 C64.013181,70.9404297 63.5996109,71.132892 63.2988281,71.5178223 C62.9980454,71.9027526 62.8476562,72.4318 62.8476562,73.1049805 C62.8476562,73.7817417 62.9971502,74.3116843 63.2961426,74.6948242 C63.595135,75.0779642 64.0096002,75.2695312 64.5395508,75.2695312 C65.0659206,75.2695312 65.481281,75.0761738 65.7856445,74.6894531 C66.090008,74.3027324 66.2421875,73.7745802 66.2421875,73.1049805 C66.2421875,72.4425423 66.0891129,71.9161803 65.782959,71.5258789 C65.4768051,71.1355775 65.0623399,70.9404297 64.5395508,70.9404297 Z M71.3125,70.9243164 C70.8505836,70.9243164 70.4710301,71.0800766 70.1738281,71.3916016 C69.8766261,71.7031266 69.7101239,72.1149063 69.6743164,72.6269531 L72.8647461,72.6269531 C72.8540039,72.1149063 72.7071954,71.7031266 72.4243164,71.3916016 C72.1414374,71.0800766 71.7708356,70.9243164 71.3125,70.9243164 Z M72.8378906,74.5014648 L73.7617188,74.5014648 C73.6220696,74.9991887 73.3391948,75.3903794 72.9130859,75.6750488 C72.486977,75.9597182 71.9570344,76.1020508 71.3232422,76.1020508 C70.5211548,76.1020508 69.8855818,75.8326036 69.4165039,75.2937012 C68.947426,74.7547987 68.7128906,74.0270228 68.7128906,73.1103516 C68.7128906,72.2008418 68.9492164,71.4730659 69.421875,70.927002 C69.8945336,70.380938 70.5283163,70.1079102 71.3232422,70.1079102 C72.103845,70.1079102 72.717934,70.3684056 73.1655273,70.8894043 C73.6131207,71.410403 73.8369141,72.1202755 73.8369141,73.019043 L73.8369141,73.3735352 L69.6743164,73.3735352 L69.6743164,73.4165039 C69.6993816,73.9894234 69.861408,74.4441715 70.1604004,74.7807617 C70.4593928,75.1173519 70.8541642,75.2856445 71.3447266,75.2856445 C71.7171243,75.2856445 72.0286446,75.2185065 72.2792969,75.0842285 C72.5299492,74.9499505 72.7161452,74.7556979 72.8378906,74.5014648 Z M75.3515625,76 C75.3515625,76 75.3515625,75.8048522 75.3515625,75.4145508 C75.3515625,75.0242494 75.3515625,74.5417509 75.3515625,73.967041 C75.3515625,73.3923311 75.3515625,72.8176298 75.3515625,72.2429199 C75.3515625,71.66821 75.3515625,71.1857116 75.3515625,70.7954102 C75.3515625,70.4051087 75.3515625,70.2099609 75.3515625,70.2099609 L76.2324219,70.2099609 L76.2324219,71.0693359 L76.3183594,71.0693359 C76.4042973,70.7864569 76.5976547,70.5555022 76.8984375,70.3764648 C77.1992203,70.1974275 77.5411765,70.1079102 77.9243164,70.1079102 C77.9995121,70.1079102 78.0809729,70.1105957 78.1687012,70.1159668 C78.2564295,70.1213379 78.3289385,70.1276041 78.3862305,70.1347656 L78.3862305,71.0585938 C78.350423,71.0478515 78.2662767,71.0362143 78.1337891,71.0236816 C78.0013014,71.011149 77.8885096,71.0048828 77.7954102,71.0048828 C77.3549783,71.0048828 76.9915379,71.1373685 76.7050781,71.4023438 C76.4186184,71.667319 76.2753906,72.0039042 76.2753906,72.4121094 L76.2753906,76 L75.3515625,76 Z" fill="#9B9B9B"></path>
            </g>
        </g>
    </g>
</svg>