<?xml version="1.0" encoding="utf-8"?>
<!-- Generator: Adobe Illustrator 17.1.0, SVG Export Plug-In . SVG Version: 6.00 Build 0)  -->
<!DOCTYPE svg PUBLIC "-//W3C//DTD SVG 1.1//EN" "http://www.w3.org/Graphics/SVG/1.1/DTD/svg11.dtd">
<svg version="1.1" id="Layer_1" xmlns="http://www.w3.org/2000/svg" xmlns:xlink="http://www.w3.org/1999/xlink" x="0px" y="0px"
	 width="27px" height="10.2px" viewBox="1 1 27 10.2" enable-background="new 1 1 27 10.2" xml:space="preserve">
<title>Arial Arial Black Av</title>
<desc>Created with Sketch.</desc>
<g id="Symbols">
	<g id="Component_x2F_Font-type" transform="translate(-10.000000, -12.000000)">
		<path id="Arial-Arial-Black-Av" d="M11,23l3.8-10h1.4l4.1,10h-1.5l-1.2-3h-4.2l-1.1,3H11z M13.9,18.9h3.4l-1-2.8
			c-0.3-0.8-0.6-1.5-0.7-2.1c-0.1,0.6-0.3,1.3-0.5,1.9L13.9,18.9z M21.2,23v-7.3h1.1v1.1c0.3-0.5,0.5-0.9,0.8-1s0.5-0.2,0.8-0.2
			c0.4,0,0.8,0.1,1.3,0.4l-0.4,1.1c-0.3-0.2-0.6-0.3-0.9-0.3c-0.3,0-0.5,0.1-0.7,0.2s-0.4,0.4-0.5,0.7c-0.1,0.4-0.2,0.9-0.2,1.4V23
			H21.2z M25.9,14.4V13h1.2v1.4H25.9z M25.9,23v-7.3h1.2V23H25.9z M33.8,22.1c-0.5,0.4-0.9,0.7-1.3,0.8s-0.9,0.2-1.4,0.2
			c-0.8,0-1.4-0.2-1.8-0.6s-0.6-0.9-0.6-1.5c0-0.4,0.1-0.7,0.2-1s0.4-0.5,0.6-0.7s0.6-0.3,0.9-0.4c0.2-0.1,0.6-0.1,1.1-0.2
			c1-0.1,1.7-0.3,2.2-0.4c0-0.2,0-0.3,0-0.3c0-0.5-0.1-0.9-0.3-1.1c-0.3-0.3-0.8-0.4-1.4-0.4c-0.6,0-1,0.1-1.3,0.3S30.2,17.5,30,18
			l-1.2-0.2c0.1-0.5,0.3-0.9,0.5-1.2s0.6-0.6,1.1-0.7c0.5-0.2,1-0.3,1.6-0.3c0.6,0,1.1,0.1,1.5,0.2s0.7,0.3,0.9,0.6s0.3,0.5,0.4,0.8
			c0,0.2,0.1,0.6,0.1,1.1V20c0,1.1,0,1.9,0.1,2.2s0.2,0.6,0.3,0.9H34C33.9,22.7,33.8,22.4,33.8,22.1z M33.7,19.4
			c-0.4,0.2-1.1,0.3-2,0.5c-0.5,0.1-0.9,0.2-1.1,0.2s-0.4,0.2-0.5,0.4s-0.2,0.4-0.2,0.6c0,0.3,0.1,0.6,0.4,0.8s0.6,0.3,1.1,0.3
			c0.5,0,0.9-0.1,1.3-0.3s0.6-0.5,0.8-0.9c0.1-0.3,0.2-0.7,0.2-1.2V19.4z M36.8,23V13H38v10H36.8z"/>
	</g>
</g>
</svg>
