<?xml version="1.0" encoding="utf-8"?>
<!-- Generator: Adobe Illustrator 17.1.0, SVG Export Plug-In . SVG Version: 6.00 Build 0)  -->
<!DOCTYPE svg PUBLIC "-//W3C//DTD SVG 1.1//EN" "http://www.w3.org/Graphics/SVG/1.1/DTD/svg11.dtd">
<svg version="1.1" id="Layer_1" xmlns="http://www.w3.org/2000/svg" xmlns:xlink="http://www.w3.org/1999/xlink" x="0px" y="0px"
	 width="86.8px" height="10.1px" viewBox="1.1 49.1 86.8 10.1" enable-background="new 1.1 49.1 86.8 10.1" xml:space="preserve">
<title>Arial Arial Black Av</title>
<desc>Created with Sketch.</desc>
<g id="Symbols">
	<g id="Component_x2F_Font-type" transform="translate(-10.000000, -12.000000)">
		<path id="Arial-Arial-Black-Av" d="M15.5,61.1h1.1l4.2,9.9h-1.4l-1-2.4h-5l-1,2.4h-1.3L15.5,61.1z M16,62.6L16,62.6l-2.1,4.9h4
			L16,62.6z M24.6,71h-1.2l-2.7-6.6H22l2,5.1h0l1.9-5.1h1.2L24.6,71z M34.2,69.8c-0.4,0.5-0.8,0.9-1.3,1.1c-0.5,0.2-1,0.3-1.6,0.3
			c-0.5,0-1-0.1-1.4-0.3c-0.4-0.2-0.8-0.4-1-0.7c-0.3-0.3-0.5-0.7-0.7-1.1c-0.2-0.4-0.2-0.9-0.2-1.3c0-0.5,0.1-1,0.3-1.4
			c0.2-0.4,0.4-0.8,0.7-1.1s0.7-0.5,1.1-0.7c0.4-0.2,0.9-0.3,1.3-0.3c0.5,0,0.9,0.1,1.3,0.2c0.4,0.2,0.7,0.4,1,0.7
			c0.3,0.3,0.5,0.7,0.6,1.1s0.2,0.9,0.2,1.4v0.3h-5.3c0,0.3,0.1,0.5,0.2,0.8s0.3,0.5,0.5,0.7c0.2,0.2,0.4,0.3,0.7,0.5
			c0.3,0.1,0.5,0.2,0.8,0.2c0.5,0,0.9-0.1,1.2-0.3c0.3-0.2,0.6-0.4,0.9-0.7L34.2,69.8z M33.3,67.1c0-0.6-0.2-1-0.5-1.3
			c-0.3-0.3-0.8-0.5-1.4-0.5c-0.6,0-1.1,0.2-1.5,0.5s-0.6,0.8-0.7,1.3H33.3z M36.2,66c0-0.3,0-0.6,0-0.8c0-0.3,0-0.5,0-0.7h1
			c0,0.2,0,0.4,0,0.5c0,0.2,0,0.4,0,0.5h0c0.1-0.2,0.2-0.3,0.3-0.5c0.1-0.1,0.3-0.3,0.5-0.4s0.4-0.2,0.6-0.3
			c0.2-0.1,0.5-0.1,0.8-0.1c0.4,0,0.8,0.1,1.1,0.2s0.6,0.3,0.8,0.5c0.2,0.2,0.4,0.5,0.5,0.8c0.1,0.3,0.1,0.7,0.1,1.1v4h-1.1v-3.9
			c0-0.6-0.1-1-0.4-1.3s-0.6-0.5-1.1-0.5c-0.4,0-0.7,0.1-0.9,0.2c-0.3,0.1-0.5,0.3-0.6,0.5s-0.3,0.5-0.4,0.8c-0.1,0.3-0.1,0.6-0.1,1
			V71h-1.1V66z M44.1,64.4h1.1V71h-1.1V64.4z M43.8,61.9c0-0.2,0.1-0.4,0.2-0.6c0.2-0.2,0.3-0.2,0.6-0.2c0.2,0,0.4,0.1,0.6,0.2
			s0.2,0.3,0.2,0.6c0,0.2-0.1,0.4-0.2,0.6s-0.3,0.2-0.6,0.2c-0.2,0-0.4-0.1-0.6-0.2S43.8,62.1,43.8,61.9z M47.3,66
			c0-0.3,0-0.6,0-0.8c0-0.3,0-0.5,0-0.7h1c0,0.2,0,0.4,0,0.5c0,0.2,0,0.4,0,0.5h0c0.1-0.2,0.2-0.3,0.3-0.5c0.1-0.1,0.3-0.3,0.5-0.4
			c0.2-0.1,0.4-0.2,0.6-0.3c0.2-0.1,0.5-0.1,0.8-0.1c0.1,0,0.1,0,0.2,0c0.1,0,0.1,0,0.2,0.1l-0.1,1.1c-0.2-0.1-0.4-0.1-0.6-0.1
			c-0.7,0-1.2,0.2-1.5,0.7c-0.3,0.4-0.5,1-0.5,1.8V71h-1.1V66z M56.3,61.1h2.5c0.5,0,0.9,0,1.4,0.1c0.5,0.1,0.9,0.2,1.3,0.4
			c0.4,0.2,0.7,0.5,0.9,0.8c0.2,0.4,0.3,0.8,0.3,1.5c0,0.7-0.2,1.3-0.7,1.8c-0.4,0.4-1,0.7-1.8,0.9l2.8,4.6h-1.4L59,66.5h-1.5V71
			h-1.2V61.1z M57.5,65.5h1c0.3,0,0.7,0,1,0c0.3,0,0.7-0.1,1-0.2c0.3-0.1,0.5-0.3,0.7-0.5c0.2-0.2,0.3-0.5,0.3-0.9
			c0-0.4-0.1-0.6-0.2-0.9c-0.1-0.2-0.3-0.4-0.6-0.5c-0.2-0.1-0.5-0.2-0.8-0.2s-0.6-0.1-0.9-0.1h-1.7V65.5z M64.3,67.7
			c0-0.5,0.1-1,0.3-1.4c0.2-0.4,0.4-0.8,0.7-1.1s0.7-0.5,1.1-0.7c0.4-0.2,0.9-0.3,1.4-0.3c0.5,0,1,0.1,1.4,0.3
			c0.4,0.2,0.8,0.4,1.1,0.7s0.6,0.7,0.7,1.1c0.2,0.4,0.3,0.9,0.3,1.4s-0.1,1-0.3,1.4c-0.2,0.4-0.4,0.8-0.7,1.1s-0.7,0.5-1.1,0.7
			s-0.9,0.3-1.4,0.3c-0.5,0-1-0.1-1.4-0.3s-0.8-0.4-1.1-0.7s-0.6-0.7-0.7-1.1C64.4,68.7,64.3,68.2,64.3,67.7z M65.5,67.7
			c0,0.3,0.1,0.7,0.2,1c0.1,0.3,0.3,0.6,0.5,0.8c0.2,0.2,0.5,0.4,0.7,0.5s0.6,0.2,1,0.2c0.4,0,0.7-0.1,1-0.2
			c0.3-0.1,0.5-0.3,0.7-0.5c0.2-0.2,0.4-0.5,0.5-0.8c0.1-0.3,0.2-0.6,0.2-1s-0.1-0.7-0.2-1c-0.1-0.3-0.3-0.6-0.5-0.8
			c-0.2-0.2-0.5-0.4-0.7-0.5c-0.3-0.1-0.6-0.2-1-0.2c-0.4,0-0.7,0.1-1,0.2s-0.5,0.3-0.7,0.5c-0.2,0.2-0.4,0.5-0.5,0.8
			C65.5,67.1,65.5,67.4,65.5,67.7z M73,66c0-0.3,0-0.6,0-0.8c0-0.3,0-0.5,0-0.7h1c0,0.2,0,0.4,0,0.5c0,0.2,0,0.4,0,0.5h0
			c0.1-0.2,0.2-0.3,0.3-0.5c0.1-0.1,0.3-0.3,0.5-0.4c0.2-0.1,0.4-0.2,0.6-0.3c0.2-0.1,0.5-0.1,0.8-0.1c0.4,0,0.7,0,0.9,0.1
			c0.2,0.1,0.4,0.2,0.6,0.3s0.3,0.3,0.4,0.4s0.2,0.3,0.2,0.4c0.2-0.4,0.5-0.7,0.8-0.9c0.3-0.2,0.7-0.3,1.2-0.3
			c0.5,0,0.9,0.1,1.2,0.2c0.3,0.1,0.6,0.3,0.8,0.5s0.3,0.5,0.4,0.9c0.1,0.3,0.1,0.7,0.1,1.1v4h-1.1v-3.9c0-0.2,0-0.4-0.1-0.7
			c0-0.2-0.1-0.4-0.3-0.6c-0.1-0.2-0.3-0.3-0.5-0.4s-0.5-0.2-0.8-0.2c-0.2,0-0.5,0-0.7,0.1c-0.2,0.1-0.4,0.2-0.5,0.4
			c-0.2,0.2-0.3,0.4-0.4,0.6s-0.1,0.5-0.1,0.8V71h-1.1v-3.7c0-0.7-0.1-1.2-0.3-1.5c-0.2-0.3-0.5-0.5-1-0.5c-0.4,0-0.7,0.1-0.9,0.2
			c-0.3,0.1-0.5,0.3-0.6,0.5c-0.2,0.2-0.3,0.5-0.4,0.8c-0.1,0.3-0.1,0.6-0.1,1V71H73V66z M84.8,65.3c0.3-0.3,0.7-0.6,1.2-0.8
			c0.5-0.2,0.9-0.2,1.4-0.2c1,0,1.7,0.2,2.1,0.7c0.4,0.5,0.6,1.2,0.6,2.1v2.8c0,0.2,0,0.4,0,0.6c0,0.2,0,0.4,0.1,0.6h-1
			c0-0.1-0.1-0.3-0.1-0.5c0-0.2,0-0.3,0-0.5h0c-0.2,0.3-0.5,0.6-0.9,0.8c-0.4,0.2-0.8,0.3-1.3,0.3c-0.3,0-0.7,0-0.9-0.1
			c-0.3-0.1-0.6-0.2-0.8-0.4c-0.2-0.2-0.4-0.4-0.5-0.6s-0.2-0.5-0.2-0.8c0-0.5,0.1-1,0.4-1.3c0.3-0.3,0.6-0.5,1-0.7
			c0.4-0.1,0.9-0.2,1.3-0.3c0.5,0,0.9-0.1,1.3-0.1h0.4v-0.2c0-0.5-0.1-0.8-0.4-1.1s-0.7-0.4-1.2-0.4c-0.4,0-0.7,0.1-1,0.2
			c-0.3,0.1-0.6,0.3-0.9,0.5L84.8,65.3z M88,67.8c-0.7,0-1.3,0.1-1.7,0.3c-0.4,0.2-0.6,0.5-0.6,1c0,0.4,0.1,0.7,0.4,0.9
			c0.3,0.2,0.6,0.3,1,0.3c0.3,0,0.6-0.1,0.8-0.2c0.2-0.1,0.4-0.2,0.6-0.4c0.2-0.2,0.3-0.4,0.4-0.6c0.1-0.2,0.1-0.5,0.1-0.8v-0.4H88z
			 M92.2,66c0-0.3,0-0.6,0-0.8c0-0.3,0-0.5,0-0.7h1c0,0.2,0,0.4,0,0.5c0,0.2,0,0.4,0,0.5h0c0.1-0.2,0.2-0.3,0.3-0.5
			c0.1-0.1,0.3-0.3,0.5-0.4c0.2-0.1,0.4-0.2,0.6-0.3c0.2-0.1,0.5-0.1,0.8-0.1c0.4,0,0.8,0.1,1.1,0.2s0.6,0.3,0.8,0.5
			c0.2,0.2,0.4,0.5,0.5,0.8c0.1,0.3,0.1,0.7,0.1,1.1v4h-1.1v-3.9c0-0.6-0.1-1-0.4-1.3s-0.6-0.5-1.1-0.5c-0.4,0-0.7,0.1-0.9,0.2
			c-0.3,0.1-0.5,0.3-0.6,0.5c-0.2,0.2-0.3,0.5-0.4,0.8c-0.1,0.3-0.1,0.6-0.1,1V71h-1.1V66z"/>
	</g>
</g>
</svg>
