<?xml version="1.0" encoding="utf-8"?>
<!-- Generator: Adobe Illustrator 17.1.0, SVG Export Plug-In . SVG Version: 6.00 Build 0)  -->
<!DOCTYPE svg PUBLIC "-//W3C//DTD SVG 1.1//EN" "http://www.w3.org/Graphics/SVG/1.1/DTD/svg11.dtd">
<svg version="1.1" id="Layer_1" xmlns="http://www.w3.org/2000/svg" xmlns:xlink="http://www.w3.org/1999/xlink" x="0px" y="0px"
	 width="83.7px" height="10.2px" viewBox="1 25 83.7 10.2" enable-background="new 1 25 83.7 10.2" xml:space="preserve">
<title>Arial Arial Black Av</title>
<desc>Created with Sketch.</desc>
<g id="Symbols">
	<g id="Component_x2F_Font-type" transform="translate(-10.000000, -12.000000)">
		<path id="Arial-Arial-Black-Av" d="M18.2,45.3h-3.5L14.2,47H11l3.8-10h3.4l3.8,10h-3.2L18.2,45.3z M17.5,43.2l-1.1-3.6l-1.1,3.6
			H17.5z M22.8,39.7h2.6v1.2c0.3-0.5,0.5-0.9,0.8-1.1s0.6-0.3,1-0.3c0.4,0,0.9,0.1,1.3,0.4l-0.9,2c-0.3-0.1-0.6-0.2-0.8-0.2
			c-0.4,0-0.6,0.2-0.8,0.5c-0.3,0.4-0.4,1.2-0.4,2.4V47h-2.8V39.7z M29,37h2.8v1.9H29V37z M29,39.7h2.8V47H29V39.7z M36.1,42.1
			l-2.7-0.3c0.1-0.5,0.2-0.8,0.4-1.1s0.5-0.5,0.8-0.7c0.3-0.1,0.6-0.3,1.1-0.3s0.9-0.1,1.4-0.1c0.8,0,1.5,0,2,0.1s0.9,0.3,1.3,0.6
			c0.2,0.2,0.4,0.5,0.6,0.9c0.1,0.4,0.2,0.7,0.2,1.1v3.2c0,0.3,0,0.6,0.1,0.8s0.1,0.4,0.3,0.7H39c-0.1-0.2-0.2-0.3-0.2-0.4
			s-0.1-0.3-0.1-0.5c-0.4,0.4-0.7,0.6-1.1,0.8c-0.5,0.2-1.1,0.3-1.7,0.3c-0.9,0-1.5-0.2-2-0.6s-0.7-0.9-0.7-1.5c0-0.6,0.2-1,0.5-1.4
			s0.9-0.6,1.8-0.8c1-0.2,1.7-0.4,2-0.4s0.6-0.2,1-0.3c0-0.3-0.1-0.6-0.2-0.7s-0.4-0.2-0.7-0.2c-0.5,0-0.8,0.1-1,0.2
			C36.4,41.6,36.3,41.8,36.1,42.1z M38.6,43.6c-0.4,0.1-0.8,0.3-1.2,0.4c-0.6,0.2-0.9,0.3-1.1,0.4c-0.2,0.2-0.2,0.3-0.2,0.5
			c0,0.2,0.1,0.4,0.2,0.5s0.4,0.2,0.7,0.2c0.3,0,0.6-0.1,0.9-0.2s0.5-0.3,0.6-0.6s0.2-0.5,0.2-0.8V43.6z M43,37h2.8v10H43V37z
			 M52.5,37h5.8c1,0,1.7,0.2,2.2,0.7s0.8,1.1,0.8,1.8c0,0.6-0.2,1.1-0.6,1.5c-0.2,0.3-0.6,0.5-1.1,0.7c0.7,0.2,1.2,0.5,1.6,0.9
			s0.5,1,0.5,1.6c0,0.5-0.1,1-0.4,1.4s-0.6,0.7-1,1c-0.3,0.2-0.7,0.3-1.2,0.3C58.5,47,58,47,57.8,47h-5.3V37z M55.6,40.9h1.3
			c0.5,0,0.8-0.1,1-0.2s0.3-0.4,0.3-0.7c0-0.3-0.1-0.5-0.3-0.7S57.4,39,57,39h-1.4V40.9z M55.6,44.8h1.6c0.5,0,0.9-0.1,1.1-0.3
			s0.3-0.4,0.3-0.8c0-0.3-0.1-0.5-0.3-0.7s-0.6-0.3-1.1-0.3h-1.6V44.8z M63.3,37H66v10h-2.8V37z M70.4,42.1l-2.7-0.3
			c0.1-0.5,0.2-0.8,0.4-1.1s0.5-0.5,0.8-0.7c0.3-0.1,0.6-0.3,1.1-0.3s0.9-0.1,1.4-0.1c0.8,0,1.5,0,2,0.1s0.9,0.3,1.3,0.6
			c0.2,0.2,0.4,0.5,0.6,0.9c0.1,0.4,0.2,0.7,0.2,1.1v3.2c0,0.3,0,0.6,0.1,0.8s0.1,0.4,0.3,0.7h-2.6c-0.1-0.2-0.2-0.3-0.2-0.4
			s-0.1-0.3-0.1-0.5c-0.4,0.4-0.7,0.6-1.1,0.8c-0.5,0.2-1.1,0.3-1.7,0.3c-0.9,0-1.5-0.2-2-0.6s-0.7-0.9-0.7-1.5c0-0.6,0.2-1,0.5-1.4
			s0.9-0.6,1.8-0.8c1-0.2,1.7-0.4,2-0.4s0.6-0.2,1-0.3c0-0.3-0.1-0.6-0.2-0.7s-0.4-0.2-0.7-0.2c-0.5,0-0.8,0.1-1,0.2
			C70.6,41.6,70.5,41.8,70.4,42.1z M72.8,43.6c-0.4,0.1-0.8,0.3-1.2,0.4c-0.6,0.2-0.9,0.3-1.1,0.4c-0.2,0.2-0.2,0.3-0.2,0.5
			c0,0.2,0.1,0.4,0.2,0.5s0.4,0.2,0.7,0.2c0.3,0,0.6-0.1,0.9-0.2s0.5-0.3,0.6-0.6s0.2-0.5,0.2-0.8V43.6z M82.6,44.2l2.6,0.3
			c-0.1,0.6-0.4,1-0.7,1.4s-0.8,0.7-1.3,0.9s-1.2,0.3-2,0.3c-0.8,0-1.4-0.1-1.9-0.2s-1-0.4-1.3-0.7s-0.7-0.7-0.9-1.1s-0.3-1-0.3-1.7
			c0-0.7,0.1-1.4,0.4-1.9c0.2-0.4,0.4-0.7,0.8-1s0.7-0.5,1-0.6c0.5-0.2,1.2-0.3,2.1-0.3c1.2,0,2.1,0.2,2.7,0.6s1.1,1,1.3,1.9
			l-2.6,0.3c-0.1-0.3-0.2-0.5-0.4-0.7s-0.5-0.2-0.9-0.2c-0.5,0-0.8,0.2-1.1,0.5s-0.4,0.8-0.4,1.5c0,0.6,0.1,1.1,0.4,1.4
			s0.6,0.5,1.1,0.5c0.4,0,0.7-0.1,0.9-0.3S82.5,44.6,82.6,44.2z M86.3,37h2.8v5.2l2.1-2.4h3.4L92,42.3l2.8,4.7h-3.1l-1.5-2.9l-1,1
			V47h-2.8V37z"/>
	</g>
</g>
</svg>
