<?xml version="1.0" encoding="utf-8"?>
<!-- Generator: Adobe Illustrator 17.1.0, SVG Export Plug-In . SVG Version: 6.00 Build 0)  -->
<!DOCTYPE svg PUBLIC "-//W3C//DTD SVG 1.1//EN" "http://www.w3.org/Graphics/SVG/1.1/DTD/svg11.dtd">
<svg version="1.1" id="Layer_1" xmlns="http://www.w3.org/2000/svg" xmlns:xlink="http://www.w3.org/1999/xlink" x="0px" y="0px"
	 width="84.3px" height="11.9px" viewBox="2.1 71.4 84.3 11.9" enable-background="new 2.1 71.4 84.3 11.9" xml:space="preserve">
<title>Arial Arial Black Av</title>
<desc>Created with Sketch.</desc>
<g id="Symbols">
	<g id="Component_x2F_Font-type" transform="translate(-10.000000, -12.000000)">
		<path id="Arial-Arial-Black-Av" d="M18.2,86.8h-3.3v1.8h3v2.3h-3V95h-2.7V84.4h6V86.8z M22,87.8v4c0,0.9,0.4,1.3,1.3,1.3
			s1.3-0.4,1.3-1.3v-4h2.5v4.5c0,1-0.3,1.7-1,2.2c-0.6,0.5-1.6,0.7-2.9,0.7c-1.3,0-2.2-0.2-2.9-0.7c-0.6-0.5-1-1.2-1-2.2v-4.5H22z
			 M31.7,89.9V95h-2.5v-5.1h-0.8v-2.1h0.8v-2.2h2.5v2.2h1.4v2.1H31.7z M36.6,87.8v4c0,0.9,0.4,1.3,1.3,1.3c0.9,0,1.3-0.4,1.3-1.3v-4
			h2.5v4.5c0,1-0.3,1.7-1,2.2s-1.6,0.7-2.9,0.7S35.7,95,35,94.5c-0.6-0.5-1-1.2-1-2.2v-4.5H36.6z M43.4,87.8H46V89
			c0.3-0.4,0.6-0.8,1-1c0.4-0.2,0.8-0.3,1.4-0.3h0.2c0.1,0,0.2,0,0.3,0v2.4c-0.3-0.2-0.7-0.3-1.1-0.3c-0.6,0-1,0.2-1.3,0.5
			c-0.3,0.3-0.4,0.9-0.4,1.5V95h-2.5V87.8z M52.4,91.4c0,0.2,0,0.5,0.1,0.7c0.1,0.2,0.2,0.4,0.3,0.5c0.1,0.1,0.3,0.3,0.5,0.3
			C53.6,93,53.8,93,54,93c0.2,0,0.4,0,0.6-0.1s0.4-0.2,0.5-0.3c0.1-0.1,0.3-0.3,0.4-0.5c0.1-0.2,0.1-0.4,0.1-0.6s0-0.4-0.1-0.6
			c-0.1-0.2-0.2-0.4-0.4-0.5c-0.1-0.1-0.3-0.3-0.5-0.3s-0.4-0.1-0.6-0.1c-0.2,0-0.5,0-0.7,0.1c-0.2,0.1-0.4,0.2-0.5,0.3
			c-0.1,0.1-0.3,0.3-0.3,0.5C52.4,91,52.4,91.2,52.4,91.4z M55.6,87.8h2.5V95h-2.5v-0.8c-0.5,0.7-1.3,1-2.2,1c-0.5,0-1-0.1-1.4-0.3
			c-0.4-0.2-0.8-0.5-1.1-0.8c-0.3-0.3-0.6-0.8-0.8-1.2c-0.2-0.5-0.3-1-0.3-1.5c0-0.5,0.1-1,0.3-1.5c0.2-0.5,0.4-0.9,0.7-1.2
			c0.3-0.3,0.7-0.6,1.1-0.8c0.4-0.2,0.9-0.3,1.5-0.3c0.9,0,1.6,0.3,2.2,0.9V87.8z M67.6,92.9h0.6c0.7,0,1.2-0.1,1.5-0.3
			c0.3-0.2,0.4-0.5,0.4-0.9c0-0.4-0.1-0.7-0.4-0.9c-0.3-0.2-0.8-0.3-1.5-0.3h-0.6V92.9z M67.6,88.6h0.5c0.9,0,1.3-0.3,1.3-1
			s-0.4-1-1.3-1h-0.5V88.6z M64.8,84.4h4.1c1,0,1.7,0.2,2.2,0.7c0.5,0.5,0.8,1.1,0.8,2c0,0.5-0.1,1-0.3,1.3
			c-0.2,0.3-0.5,0.6-0.9,0.9c0.4,0.1,0.7,0.2,1,0.3c0.3,0.2,0.5,0.3,0.7,0.6c0.2,0.2,0.3,0.5,0.4,0.8c0.1,0.3,0.1,0.6,0.1,0.9
			c0,0.5-0.1,0.9-0.3,1.3s-0.4,0.7-0.7,1c-0.3,0.3-0.7,0.5-1.1,0.6c-0.4,0.1-1,0.2-1.5,0.2h-4.4V84.4z M76.7,91.4
			c0,0.2,0,0.5,0.1,0.7s0.2,0.4,0.3,0.5c0.1,0.1,0.3,0.3,0.5,0.3s0.4,0.1,0.6,0.1c0.2,0,0.4,0,0.6-0.1s0.4-0.2,0.5-0.3
			c0.1-0.1,0.3-0.3,0.3-0.5s0.1-0.4,0.1-0.7c0-0.2,0-0.4-0.1-0.6s-0.2-0.4-0.3-0.5c-0.1-0.1-0.3-0.3-0.5-0.3s-0.4-0.1-0.6-0.1
			c-0.2,0-0.4,0-0.6,0.1s-0.4,0.2-0.5,0.3c-0.1,0.1-0.3,0.3-0.3,0.5C76.7,90.9,76.7,91.2,76.7,91.4z M74,91.3c0-0.5,0.1-1,0.3-1.5
			c0.2-0.5,0.5-0.9,0.9-1.2s0.8-0.6,1.4-0.8s1.1-0.3,1.7-0.3c0.6,0,1.2,0.1,1.7,0.3c0.5,0.2,1,0.5,1.4,0.8s0.7,0.7,0.9,1.2
			c0.2,0.5,0.3,1,0.3,1.6s-0.1,1.1-0.3,1.6c-0.2,0.5-0.5,0.9-0.9,1.2S80.6,94.8,80,95s-1.1,0.3-1.7,0.3c-0.6,0-1.2-0.1-1.7-0.3
			c-0.5-0.2-1-0.5-1.4-0.8c-0.4-0.3-0.7-0.8-0.9-1.2C74.1,92.5,74,91.9,74,91.3z M86.6,83.4V95h-2.5V83.4H86.6z M90.7,91.4
			c0,0.2,0,0.5,0.1,0.7s0.2,0.4,0.3,0.5c0.1,0.1,0.3,0.3,0.5,0.3s0.4,0.1,0.7,0.1c0.2,0,0.4,0,0.6-0.1s0.4-0.2,0.5-0.3
			c0.1-0.1,0.3-0.3,0.3-0.5c0.1-0.2,0.1-0.4,0.1-0.6s0-0.4-0.1-0.6s-0.2-0.4-0.3-0.5c-0.1-0.1-0.3-0.3-0.5-0.3s-0.4-0.1-0.6-0.1
			c-0.2,0-0.4,0-0.6,0.1s-0.4,0.2-0.5,0.3c-0.1,0.1-0.3,0.3-0.3,0.5C90.8,91,90.7,91.2,90.7,91.4z M93.9,83.4h2.5V95h-2.5v-0.8
			c-0.5,0.7-1.3,1-2.2,1c-0.5,0-1-0.1-1.4-0.3c-0.4-0.2-0.8-0.5-1.1-0.8c-0.3-0.3-0.6-0.8-0.8-1.2c-0.2-0.5-0.3-1-0.3-1.5
			c0-0.5,0.1-1,0.3-1.5c0.2-0.5,0.4-0.9,0.7-1.2c0.3-0.3,0.7-0.6,1.1-0.8c0.4-0.2,0.9-0.3,1.5-0.3c0.9,0,1.6,0.3,2.2,0.9V83.4z"/>
	</g>
</g>
</svg>
