<?xml version="1.0" encoding="utf-8"?>
<!-- Generator: Adobe Illustrator 17.1.0, SVG Export Plug-In . SVG Version: 6.00 Build 0)  -->
<!DOCTYPE svg PUBLIC "-//W3C//DTD SVG 1.1//EN" "http://www.w3.org/Graphics/SVG/1.1/DTD/svg11.dtd">
<svg version="1.1" id="Layer_1" xmlns="http://www.w3.org/2000/svg" xmlns:xlink="http://www.w3.org/1999/xlink" x="0px" y="0px"
	 width="75.1px" height="10.2px" viewBox="2.1 97 75.1 10.2" enable-background="new 2.1 97 75.1 10.2" xml:space="preserve">
<title>Arial Arial Black Av</title>
<desc>Created with Sketch.</desc>
<g id="Symbols">
	<g id="Component_x2F_Font-type" transform="translate(-10.000000, -12.000000)">
		<path id="Arial-Arial-Black-Av" d="M12.1,119v-10h6.8v1.2h-5.4v3.1h4.7v1.2h-4.7v4.6H12.1z M25.2,119v-1.1
			c-0.6,0.8-1.3,1.2-2.3,1.2c-0.4,0-0.8-0.1-1.2-0.2s-0.6-0.4-0.8-0.6s-0.3-0.6-0.4-0.9c-0.1-0.2-0.1-0.6-0.1-1.1v-4.5h1.2v4
			c0,0.6,0,1.1,0.1,1.3c0.1,0.3,0.2,0.6,0.5,0.8s0.6,0.3,0.9,0.3s0.7-0.1,1-0.3c0.3-0.2,0.6-0.4,0.7-0.8s0.2-0.8,0.2-1.4v-3.9h1.2
			v7.3H25.2z M30.9,117.9l0.2,1.1c-0.3,0.1-0.7,0.1-0.9,0.1c-0.4,0-0.8-0.1-1-0.2s-0.4-0.3-0.5-0.6c-0.1-0.2-0.2-0.7-0.2-1.5v-4.2
			h-0.9v-1h0.9v-1.8l1.2-0.7v2.5h1.2v1h-1.2v4.2c0,0.4,0,0.6,0.1,0.7s0.1,0.2,0.2,0.2s0.2,0.1,0.4,0.1
			C30.5,117.9,30.7,117.9,30.9,117.9z M36.9,119v-1.1c-0.6,0.8-1.3,1.2-2.3,1.2c-0.4,0-0.8-0.1-1.2-0.2s-0.6-0.4-0.8-0.6
			s-0.3-0.6-0.4-0.9c-0.1-0.2-0.1-0.6-0.1-1.1v-4.5h1.2v4c0,0.6,0,1.1,0.1,1.3c0.1,0.3,0.2,0.6,0.5,0.8s0.6,0.3,0.9,0.3
			s0.7-0.1,1-0.3s0.6-0.4,0.7-0.8s0.2-0.8,0.2-1.4v-3.9H38v7.3H36.9z M39.9,119v-7.3H41v1.1c0.3-0.5,0.5-0.9,0.8-1s0.5-0.2,0.8-0.2
			c0.4,0,0.8,0.1,1.3,0.4l-0.4,1.1c-0.3-0.2-0.6-0.3-0.9-0.3c-0.3,0-0.5,0.1-0.7,0.2s-0.4,0.4-0.5,0.7c-0.1,0.4-0.2,0.9-0.2,1.4v3.8
			H39.9z M49.3,118.1c-0.5,0.4-0.9,0.7-1.3,0.8s-0.9,0.2-1.4,0.2c-0.8,0-1.4-0.2-1.8-0.6s-0.6-0.9-0.6-1.5c0-0.4,0.1-0.7,0.2-1
			s0.4-0.5,0.6-0.7s0.6-0.3,0.9-0.4c0.2-0.1,0.6-0.1,1.1-0.2c1-0.1,1.7-0.3,2.2-0.4c0-0.2,0-0.3,0-0.3c0-0.5-0.1-0.9-0.3-1.1
			c-0.3-0.3-0.8-0.4-1.4-0.4c-0.6,0-1,0.1-1.3,0.3c-0.3,0.2-0.5,0.6-0.6,1.1l-1.2-0.2c0.1-0.5,0.3-0.9,0.5-1.2s0.6-0.6,1.1-0.7
			s1-0.3,1.6-0.3c0.6,0,1.1,0.1,1.5,0.2s0.7,0.3,0.9,0.6s0.3,0.5,0.4,0.8c0,0.2,0.1,0.6,0.1,1.1v1.6c0,1.1,0,1.9,0.1,2.2
			s0.2,0.6,0.3,0.9h-1.3C49.5,118.7,49.4,118.4,49.3,118.1z M49.2,115.4c-0.4,0.2-1.1,0.3-2,0.5c-0.5,0.1-0.9,0.2-1.1,0.2
			s-0.4,0.2-0.5,0.4s-0.2,0.4-0.2,0.6c0,0.3,0.1,0.6,0.4,0.8s0.6,0.3,1.1,0.3c0.5,0,0.9-0.1,1.3-0.3s0.6-0.5,0.8-0.9
			c0.1-0.3,0.2-0.7,0.2-1.2V115.4z M56.4,119v-10h3.8c0.8,0,1.4,0.1,1.8,0.3c0.5,0.2,0.8,0.5,1.1,0.9s0.4,0.9,0.4,1.3
			c0,0.4-0.1,0.8-0.3,1.2s-0.6,0.7-1.1,0.9c0.6,0.2,1.1,0.5,1.4,0.9s0.5,0.9,0.5,1.5c0,0.5-0.1,0.9-0.3,1.3s-0.4,0.7-0.7,0.9
			s-0.7,0.4-1.1,0.5s-1,0.2-1.6,0.2H56.4z M57.7,113.2h2.2c0.6,0,1,0,1.3-0.1c0.3-0.1,0.6-0.3,0.8-0.5s0.3-0.5,0.3-0.9
			c0-0.3-0.1-0.6-0.2-0.9s-0.4-0.4-0.7-0.5s-0.8-0.1-1.5-0.1h-2V113.2z M57.7,117.8h2.5c0.4,0,0.7,0,0.9,0c0.3-0.1,0.6-0.1,0.8-0.3
			s0.4-0.3,0.5-0.6c0.1-0.2,0.2-0.5,0.2-0.8c0-0.4-0.1-0.7-0.3-1s-0.5-0.5-0.8-0.6s-0.8-0.2-1.5-0.2h-2.3V117.8z M65.2,115.4
			c0-1.3,0.4-2.3,1.1-3c0.6-0.5,1.4-0.8,2.3-0.8c1,0,1.8,0.3,2.4,1s1,1.6,1,2.7c0,0.9-0.1,1.7-0.4,2.2s-0.7,1-1.2,1.2
			s-1.1,0.4-1.8,0.4c-1,0-1.8-0.3-2.5-1S65.2,116.6,65.2,115.4z M66.4,115.4c0,0.9,0.2,1.6,0.6,2.1s0.9,0.7,1.5,0.7
			c0.6,0,1.1-0.2,1.5-0.7s0.6-1.2,0.6-2.1c0-0.9-0.2-1.6-0.6-2s-0.9-0.7-1.5-0.7c-0.6,0-1.1,0.2-1.5,0.7S66.4,114.4,66.4,115.4z
			 M72.9,115.4c0-1.3,0.4-2.3,1.1-3c0.6-0.5,1.4-0.8,2.3-0.8c1,0,1.8,0.3,2.4,1s1,1.6,1,2.7c0,0.9-0.1,1.7-0.4,2.2s-0.7,1-1.2,1.2
			s-1.1,0.4-1.8,0.4c-1,0-1.8-0.3-2.5-1S72.9,116.6,72.9,115.4z M74.2,115.4c0,0.9,0.2,1.6,0.6,2.1s0.9,0.7,1.5,0.7
			c0.6,0,1.1-0.2,1.5-0.7s0.6-1.2,0.6-2.1c0-0.9-0.2-1.6-0.6-2s-0.9-0.7-1.5-0.7c-0.6,0-1.1,0.2-1.5,0.7S74.2,114.4,74.2,115.4z
			 M81.2,119v-10h1.2v5.7l2.9-3h1.6l-2.8,2.7l3.1,4.6h-1.5l-2.4-3.7l-0.9,0.8v2.9H81.2z"/>
	</g>
</g>
</svg>
