<?xml version="1.0" standalone="no"?><!-- Generator: Gravit.io --><svg xmlns="http://www.w3.org/2000/svg" xmlns:xlink="http://www.w3.org/1999/xlink" style="isolation:isolate" viewBox="0 0 100 100" width="100" height="100"><defs><clipPath id="_clipPath_NNvDbDOOyVsZrjONCMrAWWyLtIu4unVl"><rect width="100" height="100"/></clipPath></defs><g clip-path="url(#_clipPath_NNvDbDOOyVsZrjONCMrAWWyLtIu4unVl)"><rect x="27.2" y="0" width="13" height="3" transform="matrix(1,0,0,1,0,0)" fill="rgb(197,197,197)"/><path d=" M 42 3 L 48.5 3 L 48.5 13 L 51.5 13 L 51.5 3 L 55 3 L 55 0 L 42 0 L 42 3 Z " fill="rgb(197,197,197)"/><rect x="57" y="0" width="13" height="3" transform="matrix(1,0,0,1,0,0)" fill="rgb(197,197,197)"/><rect x="72" y="0" width="13" height="3" transform="matrix(1,0,0,1,0,0)" fill="rgb(197,197,197)"/><path d=" M 87 0 L 87 3 L 97 3 L 97 13 L 100 13 L 100 3 L 100 0 L 100 0 L 87 0 Z " fill="rgb(197,197,197)"/><rect x="12" y="0" width="13" height="3" transform="matrix(1,0,0,1,0,0)" fill="rgb(197,197,197)"/><rect x="27.2" y="97" width="13" height="3" transform="matrix(1,0,0,1,0,0)" fill="rgb(197,197,197)"/><path d=" M 51.5 89.9 L 48.5 89.9 L 48.5 97 L 42 97 L 42 100 L 55 100 L 55 97 L 51.5 97 L 51.5 89.9 Z " fill="rgb(197,197,197)"/><rect x="57" y="97" width="13" height="3" transform="matrix(1,0,0,1,0,0)" fill="rgb(197,197,197)"/><rect x="72" y="97" width="13" height="3" transform="matrix(1,0,0,1,0,0)" fill="rgb(197,197,197)"/><rect x="12" y="97" width="13" height="3" transform="matrix(1,0,0,1,0,0)" fill="rgb(197,197,197)"/><rect x="27.1" y="48.5" width="13" height="3" transform="matrix(1,0,0,1,0,0)" fill="rgb(197,197,197)"/><rect x="57" y="48.5" width="13" height="3" transform="matrix(1,0,0,1,0,0)" fill="rgb(197,197,197)"/><rect x="72" y="48.5" width="13" height="3" transform="matrix(1,0,0,1,0,0)" fill="rgb(197,197,197)"/><rect x="12.1" y="48.5" width="13" height="3" transform="matrix(1,0,0,1,0,0)" fill="rgb(197,197,197)"/><rect x="48.5" y="59.8" width="3" height="13" transform="matrix(1,0,0,1,0,0)" fill="rgb(197,197,197)"/><path d=" M 51.5 45 L 48.5 45 L 48.5 48.5 L 42 48.5 L 42 51.5 L 48.5 51.5 L 48.5 58 L 51.5 58 L 51.5 51.5 L 55 51.5 L 55 48.5 L 51.5 48.5 L 51.5 45 Z " fill="rgb(197,197,197)"/><rect x="48.5" y="30" width="3" height="13" transform="matrix(1,0,0,1,0,0)" fill="rgb(197,197,197)"/><rect x="48.5" y="14.752" width="3" height="13" transform="matrix(1,0,0,1,0,0)" fill="rgb(197,197,197)"/><rect x="48.5" y="75" width="3" height="13" transform="matrix(1,0,0,1,0,0)" fill="rgb(197,197,197)"/><rect x="97" y="59.8" width="3" height="13" transform="matrix(1,0,0,1,0,0)" fill="rgb(197,197,197)"/><path d=" M 97 48.5 L 87 48.5 L 87 51.5 L 97 51.5 L 97 58 L 100 58 L 100 51.5 L 100 48.5 L 100 45 L 97 45 L 97 48.5 Z " fill="rgb(197,197,197)"/><rect x="97" y="30" width="3" height="13" transform="matrix(1,0,0,1,0,0)" fill="rgb(197,197,197)"/><rect x="97" y="15" width="3" height="13" transform="matrix(1,0,0,1,0,0)" fill="rgb(197,197,197)"/><rect x="97" y="75" width="3" height="13" transform="matrix(1,0,0,1,0,0)" fill="rgb(197,197,197)"/><path d=" M 97 97 L 87 97 L 87 100 L 100 100 L 100 97 L 100 89.9 L 97 89.9 L 97 97 Z " fill="rgb(197,197,197)"/><path d=" M 0 3 L 0 48.5 L 0 51.5 L 0 97 L 0 100 L 10.1 100 L 10.1 97 L 10.1 51.5 L 10.1 48.5 L 10.1 3 L 10.1 0 L 0 0 L 0 3 Z " fill="rgb(0,0,0)"/></g></svg>