<?xml version="1.0" standalone="no"?><!-- Generator: Gravit.io --><svg xmlns="http://www.w3.org/2000/svg" xmlns:xlink="http://www.w3.org/1999/xlink" style="isolation:isolate" viewBox="0 0 100 100" width="100" height="100"><defs><clipPath id="_clipPath_3CZEnMZG9lEBH8s9bsUVSMRksvntaQzL"><rect width="100" height="100"/></clipPath></defs><g clip-path="url(#_clipPath_3CZEnMZG9lEBH8s9bsUVSMRksvntaQzL)"><path d=" M 3 100 L 48.5 100 L 51.5 100 L 97 100 L 100 100 L 100 95 L 97 95 L 51.5 95 L 48.5 95 L 3 95 L 0 95 L 0 100 L 3 100 Z " fill="rgb(0,0,0)"/><path d=" M 3 5 L 48.5 5 L 51.5 5 L 97 5 L 100 5 L 100 0 L 97 0 L 51.5 0 L 48.5 0 L 3 0 L 0 0 L 0 5 L 3 5 Z " fill="rgb(0,0,0)"/><path d=" M 3 52.5 L 48.5 52.5 L 51.5 52.5 L 97 52.5 L 100 52.5 L 100 47.5 L 97 47.5 L 51.5 47.5 L 48.5 47.5 L 3 47.5 L 0 47.5 L 0 52.5 L 3 52.5 Z " fill="rgb(0,0,0)"/><path d=" M 95 3 L 95 48.5 L 95 51.5 L 95 97 L 95 100 L 100 100 L 100 97 L 100 51.5 L 100 48.5 L 100 3 L 100 0 L 95 0 L 95 3 Z " fill="rgb(0,0,0)"/><path d=" M 47.5 3 L 47.5 48.5 L 47.5 51.5 L 47.5 97 L 47.5 100 L 52.5 100 L 52.5 97 L 52.5 51.5 L 52.5 48.5 L 52.5 3 L 52.5 0 L 47.5 0 L 47.5 3 Z " fill="rgb(0,0,0)"/><path d=" M 0 3 L 0 48.5 L 0 51.5 L 0 97 L 0 100 L 5 100 L 5 97 L 5 51.5 L 5 48.5 L 5 3 L 5 0 L 0 0 L 0 3 Z " fill="rgb(0,0,0)"/></g></svg>