<?xml version="1.0" standalone="no"?><!-- Generator: Gravit.io --><svg xmlns="http://www.w3.org/2000/svg" xmlns:xlink="http://www.w3.org/1999/xlink" style="isolation:isolate" viewBox="0 0 100 100" width="100" height="100"><defs><clipPath id="_clipPath_eQpKrHcEUow8n7dxWxU4kkjbAg35zOPF"><rect width="100" height="100"/></clipPath></defs><g clip-path="url(#_clipPath_eQpKrHcEUow8n7dxWxU4kkjbAg35zOPF)"><rect x="30" y="0" width="13" height="3" transform="matrix(1,0,0,1,0,0)" fill="rgb(197,197,197)"/><path d=" M 45 3 L 48.5 3 L 48.5 13 L 51.5 13 L 51.5 3 L 55 3 L 55 0 L 45 0 L 45 3 Z " fill="rgb(197,197,197)"/><rect x="57" y="0" width="13" height="3" transform="matrix(1,0,0,1,0,0)" fill="rgb(197,197,197)"/><rect x="72" y="0" width="13" height="3" transform="matrix(1,0,0,1,0,0)" fill="rgb(197,197,197)"/><rect x="15" y="0" width="13" height="3" transform="matrix(1,0,0,1,0,0)" fill="rgb(197,197,197)"/><rect x="30" y="48.5" width="13" height="3" transform="matrix(1,0,0,1,0,0)" fill="rgb(197,197,197)"/><rect x="57" y="48.5" width="13" height="3" transform="matrix(1,0,0,1,0,0)" fill="rgb(197,197,197)"/><rect x="72" y="48.5" width="13" height="3" transform="matrix(1,0,0,1,0,0)" fill="rgb(197,197,197)"/><rect x="15" y="48.5" width="13" height="3" transform="matrix(1,0,0,1,0,0)" fill="rgb(197,197,197)"/><rect x="48.5" y="59.8" width="3" height="13" transform="matrix(1,0,0,1,0,0)" fill="rgb(197,197,197)"/><path d=" M 51.5 44.95 L 48.5 44.95 L 48.5 48.45 L 45 48.45 L 45 51.45 L 48.5 51.45 L 48.5 57.95 L 51.5 57.95 L 51.5 51.45 L 55 51.45 L 55 48.45 L 51.5 48.45 L 51.5 44.95 Z " fill="rgb(197,197,197)"/><rect x="48.5" y="30" width="3" height="13" transform="matrix(1,0,0,1,0,0)" fill="rgb(197,197,197)"/><rect x="48.5" y="14.752" width="3" height="13" transform="matrix(1,0,0,1,0,0)" fill="rgb(197,197,197)"/><rect x="48.5" y="75" width="3" height="13" transform="matrix(1,0,0,1,0,0)" fill="rgb(197,197,197)"/><rect x="97" y="57" width="3" height="13" transform="matrix(1,0,0,1,0,0)" fill="rgb(197,197,197)"/><path d=" M 97 48.5 L 87 48.5 L 87 51.5 L 97 51.5 L 97 55 L 100 55 L 100 51.5 L 100 48.5 L 100 42 L 97 42 L 97 48.5 Z " fill="rgb(197,197,197)"/><rect x="97" y="27" width="3" height="13" transform="matrix(1,0,0,1,0,0)" fill="rgb(197,197,197)"/><rect x="97" y="12" width="3" height="13" transform="matrix(1,0,0,1,0,0)" fill="rgb(197,197,197)"/><rect x="97" y="72" width="3" height="13" transform="matrix(1,0,0,1,0,0)" fill="rgb(197,197,197)"/><path d=" M 3 51.667 L 13 51.667 L 13 48.667 L 3 48.667 L 3 42.167 L 0 42.167 L 0 51.667 L 0 54.667 L 0 55.261 L 3 55.261 L 3 51.667 Z " fill="rgb(197,197,197)"/><rect x="0" y="27" width="3" height="13" transform="matrix(1,0,0,1,0,0)" fill="rgb(197,197,197)"/><rect x="0" y="57" width="3" height="13" transform="matrix(1,0,0,1,0,0)" fill="rgb(197,197,197)"/><rect x="0" y="72" width="3" height="13" transform="matrix(1,0,0,1,0,0)" fill="rgb(197,197,197)"/><rect x="0" y="12" width="3" height="13" transform="matrix(1,0,0,1,0,0)" fill="rgb(197,197,197)"/><path d=" M 3 10 L 48.5 10 L 51.5 10 L 97 10 L 100 10 L 100 0 L 97 0 L 51.5 0 L 48.5 0 L 3 0 L 0 0 L 0 10 L 3 10 Z " fill="rgb(0,0,0)"/><rect x="30" y="97" width="13" height="3" transform="matrix(1,0,0,1,0,0)" fill="rgb(197,197,197)"/><path d=" M 51.5 89.9 L 48.5 89.9 L 48.5 97 L 45 97 L 45 100 L 55 100 L 55 97 L 51.5 97 L 51.5 89.9 Z " fill="rgb(197,197,197)"/><rect x="57" y="97" width="13" height="3" transform="matrix(1,0,0,1,0,0)" fill="rgb(197,197,197)"/><rect x="72" y="97" width="13" height="3" transform="matrix(1,0,0,1,0,0)" fill="rgb(197,197,197)"/><rect x="15" y="97" width="13" height="3" transform="matrix(1,0,0,1,0,0)" fill="rgb(197,197,197)"/><path d=" M 97 97 L 87 97 L 87 100 L 100 100 L 100 97 L 100 87 L 97 87 L 97 97 Z " fill="rgb(197,197,197)"/><path d=" M 2.9 97 L 3 87 L 0 87 L -0.1 100 L 2.9 100 L 13 100 L 13 97 L 2.9 97 Z " fill="rgb(197,197,197)"/></g></svg>