<?xml version="1.0" standalone="no"?><!-- Generator: Gravit.io --><svg xmlns="http://www.w3.org/2000/svg" xmlns:xlink="http://www.w3.org/1999/xlink" style="isolation:isolate" viewBox="0 0 100 100" width="100" height="100"><defs><clipPath id="_clipPath_LrJ2k6COd9m7xTAiDWVfLYGuPqgW3bTQ"><rect width="100" height="100"/></clipPath></defs><g clip-path="url(#_clipPath_LrJ2k6COd9m7xTAiDWVfLYGuPqgW3bTQ)"><path d=" M 0 13 L 3 13 L 3 3 L 13 3 L 13 0 L 3 0 L 0 0 L 0 0 L 0 13 Z " fill="rgb(197,197,197)"/><rect x="30" y="97" width="13" height="3" transform="matrix(1,0,0,1,0,0)" fill="rgb(197,197,197)"/><rect x="30" y="0" width="13" height="3" transform="matrix(1,0,0,1,0,0)" fill="rgb(197,197,197)"/><path d=" M 51.5 89.9 L 48.5 89.9 L 48.5 97 L 45 97 L 45 100 L 58 100 L 58 97 L 51.5 97 L 51.5 89.9 Z " fill="rgb(197,197,197)"/><path d=" M 48.5 10.1 L 51.5 10.1 L 51.5 3 L 58 3 L 58 0 L 45 0 L 45 3 L 48.5 3 L 48.5 10.1 Z " fill="rgb(197,197,197)"/><rect x="59.9" y="97" width="13" height="3" transform="matrix(1,0,0,1,0,0)" fill="rgb(197,197,197)"/><rect x="60" y="0" width="13" height="3" transform="matrix(1,0,0,1,0,0)" fill="rgb(197,197,197)"/><rect x="74.9" y="97" width="13" height="3" transform="matrix(1,0,0,1,0,0)" fill="rgb(197,197,197)"/><rect x="75" y="0" width="13" height="3" transform="matrix(1,0,0,1,0,0)" fill="rgb(197,197,197)"/><rect x="15" y="97" width="13" height="3" transform="matrix(1,0,0,1,0,0)" fill="rgb(197,197,197)"/><rect x="15" y="0" width="13" height="3" transform="matrix(1,0,0,1,0,0)" fill="rgb(197,197,197)"/><rect x="29" y="48.5" width="13" height="3" transform="matrix(1,0,0,1,0,0)" fill="rgb(197,197,197)"/><rect x="59" y="48.5" width="13" height="3" transform="matrix(1,0,0,1,0,0)" fill="rgb(197,197,197)"/><rect x="74" y="48.5" width="13" height="3" transform="matrix(1,0,0,1,0,0)" fill="rgb(197,197,197)"/><rect x="14" y="48.5" width="13" height="3" transform="matrix(1,0,0,1,0,0)" fill="rgb(197,197,197)"/><rect x="48.5" y="59.8" width="3" height="13" transform="matrix(1,0,0,1,0,0)" fill="rgb(197,197,197)"/><path d=" M 51.5 45 L 48.5 45 L 48.5 48.5 L 44 48.5 L 44 51.5 L 48.5 51.5 L 48.5 58 L 51.5 58 L 51.5 51.5 L 57 51.5 L 57 48.5 L 51.5 48.5 L 51.5 45 Z " fill="rgb(197,197,197)"/><rect x="48.5" y="30" width="3" height="13" transform="matrix(1,0,0,1,0,0)" fill="rgb(197,197,197)"/><rect x="48.5" y="14.752" width="3" height="13" transform="matrix(1,0,0,1,0,0)" fill="rgb(197,197,197)"/><rect x="48.5" y="75" width="3" height="13" transform="matrix(1,0,0,1,0,0)" fill="rgb(197,197,197)"/><path d=" M 3 51.5 L 12 51.5 L 12 48.5 L 3 48.5 L 3 45 L 0 45 L 0 51.5 L 0 54.5 L 0 58 L 3 58 L 3 51.5 Z " fill="rgb(197,197,197)"/><rect x="0" y="30" width="3" height="13" transform="matrix(1,0,0,1,0,0)" fill="rgb(197,197,197)"/><rect x="0" y="60" width="3" height="13" transform="matrix(1,0,0,1,0,0)" fill="rgb(197,197,197)"/><rect x="0" y="75" width="3" height="13" transform="matrix(1,0,0,1,0,0)" fill="rgb(197,197,197)"/><rect x="0" y="15" width="3" height="13" transform="matrix(1,0,0,1,0,0)" fill="rgb(197,197,197)"/><path d=" M 2.9 97 L 2.9 90 L 0 90 L -0.1 100 L 2.9 100 L 13 100 L 13 97 L 2.9 97 Z " fill="rgb(197,197,197)"/><path d=" M 89.9 3 L 89.9 48.5 L 89.9 51.5 L 89.9 97 L 89.9 100 L 100 100 L 100 97 L 100 51.5 L 100 48.5 L 100 3 L 100 0 L 89.9 0 L 89.9 3 Z " fill="rgb(0,0,0)"/></g></svg>