<?xml version="1.0" standalone="no"?><!-- Generator: Gravit.io --><svg xmlns="http://www.w3.org/2000/svg" xmlns:xlink="http://www.w3.org/1999/xlink" style="isolation:isolate" viewBox="0 0 100 100" width="100" height="100"><defs><clipPath id="_clipPath_JlSL8gokVd2gUObyrNuJhGOwlkEyhuFl"><rect width="100" height="100"/></clipPath></defs><g clip-path="url(#_clipPath_JlSL8gokVd2gUObyrNuJhGOwlkEyhuFl)"><rect x="30" y="0" width="13" height="3" transform="matrix(1,0,0,1,0,0)" fill="rgb(197,197,197)"/><path d=" M 45 3 L 48.5 3 L 48.5 13 L 51.5 13 L 51.5 3 L 55 3 L 55 0 L 45 0 L 45 3 Z " fill="rgb(197,197,197)"/><rect x="57" y="0" width="13" height="3" transform="matrix(1,0,0,1,0,0)" fill="rgb(197,197,197)"/><rect x="72" y="0" width="13" height="3" transform="matrix(1,0,0,1,0,0)" fill="rgb(197,197,197)"/><path d=" M 87 0 L 87 3 L 97 3 L 97 13 L 100 13 L 100 3 L 100 0 L 100 0 L 87 0 Z " fill="rgb(197,197,197)"/><rect x="15" y="0" width="13" height="3" transform="matrix(1,0,0,1,0,0)" fill="rgb(197,197,197)"/><rect x="30" y="48.5" width="13" height="3" transform="matrix(1,0,0,1,0,0)" fill="rgb(197,197,197)"/><rect x="57" y="48.5" width="13" height="3" transform="matrix(1,0,0,1,0,0)" fill="rgb(197,197,197)"/><rect x="72" y="48.5" width="13" height="3" transform="matrix(1,0,0,1,0,0)" fill="rgb(197,197,197)"/><rect x="15" y="48.5" width="13" height="3" transform="matrix(1,0,0,1,0,0)" fill="rgb(197,197,197)"/><rect x="48.5" y="59.8" width="3" height="13" transform="matrix(1,0,0,1,0,0)" fill="rgb(197,197,197)"/><rect x="48.5" y="30" width="3" height="13" transform="matrix(1,0,0,1,0,0)" fill="rgb(197,197,197)"/><rect x="48.5" y="14.752" width="3" height="13" transform="matrix(1,0,0,1,0,0)" fill="rgb(197,197,197)"/><rect x="48.5" y="75" width="3" height="13" transform="matrix(1,0,0,1,0,0)" fill="rgb(197,197,197)"/><rect x="97" y="59.8" width="3" height="13" transform="matrix(1,0,0,1,0,0)" fill="rgb(197,197,197)"/><path d=" M 97 48.5 L 87 48.5 L 87 51.5 L 97 51.5 L 97 58 L 100 58 L 100 51.5 L 100 48.5 L 100 45 L 97 45 L 97 48.5 Z " fill="rgb(197,197,197)"/><rect x="97" y="30" width="3" height="13" transform="matrix(1,0,0,1,0,0)" fill="rgb(197,197,197)"/><rect x="97" y="15" width="3" height="13" transform="matrix(1,0,0,1,0,0)" fill="rgb(197,197,197)"/><rect x="97" y="75" width="3" height="13" transform="matrix(1,0,0,1,0,0)" fill="rgb(197,197,197)"/><path d=" M 0 13 L 3 13 L 3 3 L 13 3 L 13 0 L 3 0 L 0 0 L 0 0 L 0 13 Z " fill="rgb(197,197,197)"/><rect x="0" y="30" width="3" height="13" transform="matrix(1,0,0,1,0,0)" fill="rgb(197,197,197)"/><rect x="0" y="60" width="3" height="13" transform="matrix(1,0,0,1,0,0)" fill="rgb(197,197,197)"/><rect x="0" y="75" width="3" height="13" transform="matrix(1,0,0,1,0,0)" fill="rgb(197,197,197)"/><rect x="0" y="15" width="3" height="13" transform="matrix(1,0,0,1,0,0)" fill="rgb(197,197,197)"/><path d=" M 3 100 L 48.5 100 L 51.5 100 L 97 100 L 100 100 L 100 90 L 97 90 L 51.5 90 L 48.5 90 L 3 90 L 0 90 L 0 100 L 3 100 Z " fill="rgb(0,0,0)"/><path d=" M 3 51.365 L 13 51.365 L 13 48.365 L 3 48.365 L 3 45 L 0 45 L 0 51.365 L 0 57.95 L 0 57.95 L 3 57.95 L 3 51.365 Z " fill="rgb(197,197,197)"/><path d=" M 51.5 44.95 L 48.5 44.95 L 48.5 48.45 L 45 48.45 L 45 51.45 L 48.5 51.45 L 48.5 57.95 L 51.5 57.95 L 51.5 51.45 L 55 51.45 L 55 48.45 L 51.5 48.45 L 51.5 44.95 Z " fill="rgb(197,197,197)"/></g></svg>